<?xml version="1.0" encoding="UTF-8"?>
<mxfile host="app.diagrams.net" modified="2024-03-26T21:00:00.000Z" agent="Mozilla/5.0" version="21.1.9" type="device">
  <diagram name="Enhanced Architecture" id="enhanced-arch">
    <mxGraphModel dx="1422" dy="1200" grid="1" gridSize="10" guides="1" tooltips="1" connect="1" arrows="1" fold="1" page="1" pageScale="1" pageWidth="1400" pageHeight="1000" math="0" shadow="1">
      <root>
        <mxCell id="root-0" />
        <mxCell id="root-1" parent="root-0" />
        
        <!-- Title -->
        <mxCell id="title" value="Conference Content Management System" style="text;html=1;strokeColor=none;fillColor=none;align=center;verticalAlign=middle;whiteSpace=wrap;rounded=0;fontSize=24;fontStyle=1;fontColor=#333333" vertex="1" parent="root-1">
          <mxGeometry x="40" y="20" width="920" height="40" as="geometry" />
        </mxCell>
        
        <!-- Frontend Layer -->
        <mxCell id="frontend-container" value="&lt;div style='display:flex;align-items:center;justify-content:center;gap:8px'&gt;&lt;img src='data:image/svg+xml;base64,PHN2ZyB4bWxucz0iaHR0cDovL3d3dy53My5vcmcvMjAwMC9zdmciIHZpZXdCb3g9IjAgMCAyNTAgMjUwIj48cGF0aCBmaWxsPSIjREQwMDMxIiBkPSJNMTI1IDMwTDMxLjkgNjMuMmwxNC4yIDEyMy4xTDEyNSAyMzBsNzguOS00My43IDE0LjItMTIzLjF6Ii8+PC9zdmc+' height='24' width='24'/&gt;&lt;span style='font-size:16px'&gt;Angular Frontend&lt;/span&gt;&lt;/div&gt;" style="swimlane;whiteSpace=wrap;html=1;fillColor=#dd0031;strokeColor=#dd0031;fontColor=white;startSize=60;fontSize=14;shadow=1;rounded=1;glass=1;swimlaneFillColor=#ffffff10" vertex="1" parent="root-1">
          <mxGeometry x="40" y="80" width="320" height="160" as="geometry" />
        </mxCell>

        <!-- Frontend Components -->
        <mxCell id="search-component" value="🔍 Search Component" style="rounded=1;whiteSpace=wrap;html=1;fillColor=#ff1744;strokeColor=none;fontColor=white;align=center;verticalAlign=middle;fontSize=14;shadow=1;glass=1" vertex="1" parent="frontend-container">
          <mxGeometry x="20" y="70" width="280" height="40" as="geometry" />
        </mxCell>

        <mxCell id="content-component" value="📄 Content Detail" style="rounded=1;whiteSpace=wrap;html=1;fillColor=#ff1744;strokeColor=none;fontColor=white;shadow=1;glass=1;fontSize=14" vertex="1" parent="frontend-container">
          <mxGeometry x="20" y="120" width="280" height="40" as="geometry" />
        </mxCell>

        <!-- Backend Layer -->
        <mxCell id="backend-container" value="🔧 Flask Backend" style="swimlane;whiteSpace=wrap;html=1;fillColor=#2c3e50;strokeColor=#2c3e50;fontColor=white;startSize=60;fontSize=16;shadow=1;rounded=1;glass=1;swimlaneFillColor=#ffffff10" vertex="1" parent="root-1">
          <mxGeometry x="40" y="280" width="320" height="160" as="geometry" />
        </mxCell>

        <mxCell id="rest-api" value="🔌 REST API" style="rounded=1;whiteSpace=wrap;html=1;fillColor=#34495e;strokeColor=none;fontColor=white;shadow=1;glass=1;fontSize=14" vertex="1" parent="backend-container">
          <mxGeometry x="20" y="70" width="280" height="40" as="geometry" />
        </mxCell>

        <mxCell id="drive-api" value="📁 Drive API" style="rounded=1;whiteSpace=wrap;html=1;fillColor=#34495e;strokeColor=none;fontColor=white;shadow=1;glass=1;fontSize=14" vertex="1" parent="backend-container">
          <mxGeometry x="20" y="120" width="280" height="40" as="geometry" />
        </mxCell>

        <!-- RAG Pipeline -->
        <mxCell id="rag-pipeline" value="🧠 RAG Pipeline" style="swimlane;whiteSpace=wrap;html=1;fillColor=#ea4335;strokeColor=#ea4335;fontColor=white;startSize=60;fontSize=16;shadow=1;rounded=1;glass=1;swimlaneFillColor=#ffffff10" vertex="1" parent="root-1">
          <mxGeometry x="400" y="280" width="600" height="160" as="geometry" />
        </mxCell>

        <mxCell id="query-embed" value="1. Query Embedding" style="rounded=1;whiteSpace=wrap;html=1;fillColor=#ff5252;strokeColor=none;fontColor=white;shadow=1;glass=1;fontSize=14" vertex="1" parent="rag-pipeline">
          <mxGeometry x="20" y="70" width="100" height="80" as="geometry" />
        </mxCell>

        <mxCell id="vector-search" value="2. Vector Search" style="rounded=1;whiteSpace=wrap;html=1;fillColor=#ff5252;strokeColor=none;fontColor=white;shadow=1;glass=1;fontSize=14" vertex="1" parent="rag-pipeline">
          <mxGeometry x="140" y="70" width="100" height="80" as="geometry" />
        </mxCell>

        <mxCell id="rerank" value="3. Rerank" style="rounded=1;whiteSpace=wrap;html=1;fillColor=#ff5252;strokeColor=none;fontColor=white;shadow=1;glass=1;fontSize=14" vertex="1" parent="rag-pipeline">
          <mxGeometry x="260" y="70" width="100" height="80" as="geometry" />
        </mxCell>

        <mxCell id="generate" value="4. Generate" style="rounded=1;whiteSpace=wrap;html=1;fillColor=#ff5252;strokeColor=none;fontColor=white;shadow=1;glass=1;fontSize=14" vertex="1" parent="rag-pipeline">
          <mxGeometry x="380" y="70" width="100" height="80" as="geometry" />
        </mxCell>

        <mxCell id="format" value="5. Format" style="rounded=1;whiteSpace=wrap;html=1;fillColor=#ff5252;strokeColor=none;fontColor=white;shadow=1;glass=1;fontSize=14" vertex="1" parent="rag-pipeline">
          <mxGeometry x="500" y="70" width="80" height="80" as="geometry" />
        </mxCell>

        <!-- GCP Services -->
        <mxCell id="gcp-container" value="☁️ Google Cloud Platform" style="swimlane;whiteSpace=wrap;html=1;fillColor=#4285f4;strokeColor=#4285f4;fontColor=white;startSize=60;fontSize=16;shadow=1;rounded=1;glass=1;swimlaneFillColor=#ffffff10" vertex="1" parent="root-1">
          <mxGeometry x="40" y="480" width="320" height="200" as="geometry" />
        </mxCell>

        <mxCell id="vertex-ai" value="🤖 Vertex AI" style="rounded=1;whiteSpace=wrap;html=1;fillColor=#1a73e8;strokeColor=none;fontColor=white;shadow=1;glass=1;fontSize=14" vertex="1" parent="gcp-container">
          <mxGeometry x="20" y="70" width="280" height="40" as="geometry" />
        </mxCell>

        <mxCell id="firestore" value="🗄️ Firestore" style="rounded=1;whiteSpace=wrap;html=1;fillColor=#0f9d58;strokeColor=none;fontColor=white;shadow=1;glass=1;fontSize=14" vertex="1" parent="gcp-container">
          <mxGeometry x="20" y="120" width="280" height="40" as="geometry" />
        </mxCell>

        <mxCell id="storage" value="💾 Cloud Storage" style="rounded=1;whiteSpace=wrap;html=1;fillColor=#1a73e8;strokeColor=none;fontColor=white;shadow=1;glass=1;fontSize=14" vertex="1" parent="gcp-container">
          <mxGeometry x="20" y="170" width="280" height="40" as="geometry" />
        </mxCell>

        <!-- Security Layer -->
        <mxCell id="security-container" value="🔐 Security Layer" style="swimlane;whiteSpace=wrap;html=1;fillColor=#ea4335;strokeColor=#ea4335;fontColor=white;startSize=60;fontSize=16;shadow=1;rounded=1;glass=1;swimlaneFillColor=#ffffff10" vertex="1" parent="root-1">
          <mxGeometry x="400" y="80" width="320" height="160" as="geometry" />
        </mxCell>

        <mxCell id="oauth" value="🔒 OAuth 2.0" style="rounded=1;whiteSpace=wrap;html=1;fillColor=#ff5252;strokeColor=none;fontColor=white;shadow=1;glass=1;fontSize=14" vertex="1" parent="security-container">
          <mxGeometry x="20" y="70" width="280" height="40" as="geometry" />
        </mxCell>

        <mxCell id="https" value="🛡️ HTTPS" style="rounded=1;whiteSpace=wrap;html=1;fillColor=#ff5252;strokeColor=none;fontColor=white;shadow=1;glass=1;fontSize=14" vertex="1" parent="security-container">
          <mxGeometry x="20" y="120" width="280" height="40" as="geometry" />
        </mxCell>

        <!-- Data Flow Arrows -->
        <mxCell id="flow1" value="" style="endArrow=classic;html=1;rounded=1;strokeColor=#666666;strokeWidth=2;edgeStyle=orthogonalEdgeStyle;curved=1;shadow=1" edge="1" parent="root-1" source="search-component" target="rest-api">
          <mxGeometry relative="1" as="geometry" />
        </mxCell>

        <!-- RAG Flow Arrows -->
        <mxCell id="rag-flow1" value="" style="endArrow=classic;html=1;rounded=1;strokeColor=#ea4335;strokeWidth=2;edgeStyle=orthogonalEdgeStyle;shadow=1" edge="1" parent="rag-pipeline" source="query-embed" target="vector-search">
          <mxGeometry relative="1" as="geometry" />
        </mxCell>

        <mxCell id="rag-flow2" value="" style="endArrow=classic;html=1;rounded=1;strokeColor=#ea4335;strokeWidth=2;edgeStyle=orthogonalEdgeStyle;shadow=1" edge="1" parent="rag-pipeline" source="vector-search" target="rerank">
          <mxGeometry relative="1" as="geometry" />
        </mxCell>

        <mxCell id="rag-flow3" value="" style="endArrow=classic;html=1;rounded=1;strokeColor=#ea4335;strokeWidth=2;edgeStyle=orthogonalEdgeStyle;shadow=1" edge="1" parent="rag-pipeline" source="rerank" target="generate">
          <mxGeometry relative="1" as="geometry" />
        </mxCell>

        <mxCell id="rag-flow4" value="" style="endArrow=classic;html=1;rounded=1;strokeColor=#ea4335;strokeWidth=2;edgeStyle=orthogonalEdgeStyle;shadow=1" edge="1" parent="rag-pipeline" source="generate" target="format">
          <mxGeometry relative="1" as="geometry" />
        </mxCell>

        <!-- Service Connections -->
        <mxCell id="drive-flow1" value="" style="endArrow=classic;html=1;rounded=1;strokeColor=#4285f4;strokeWidth=2;edgeStyle=orthogonalEdgeStyle;curved=1;shadow=1" edge="1" parent="root-1" source="drive-api" target="vertex-ai">
          <mxGeometry relative="1" as="geometry" />
        </mxCell>

        <mxCell id="vector-flow1" value="" style="endArrow=classic;html=1;rounded=1;strokeColor=#ea4335;strokeWidth=2;edgeStyle=orthogonalEdgeStyle;curved=1;shadow=1" edge="1" parent="root-1" source="vector-search" target="firestore">
          <mxGeometry relative="1" as="geometry" />
        </mxCell>

        <mxCell id="rag-flow5" value="" style="endArrow=classic;html=1;rounded=1;strokeColor=#ea4335;strokeWidth=2;edgeStyle=orthogonalEdgeStyle;curved=1;shadow=1" edge="1" parent="root-1" source="generate" target="vertex-ai">
          <mxGeometry relative="1" as="geometry" />
        </mxCell>

        <!-- Color Legend -->
        <mxCell id="legend" value="Color Legend" style="swimlane;fontStyle=1;childLayout=stackLayout;horizontal=1;startSize=30;horizontalStack=0;resizeParent=1;resizeParentMax=0;resizeLast=0;collapsible=0;marginBottom=0;html=1;rounded=1;shadow=1;glass=1;fontSize=14;fillColor=#ffffff;strokeColor=#999999;fontColor=#333333" vertex="1" parent="root-1">
          <mxGeometry x="760" y="80" width="200" height="160" as="geometry" />
        </mxCell>
        <mxCell id="legend1" value="Angular Frontend" style="text;strokeColor=none;fillColor=#dd0031;align=left;verticalAlign=middle;spacingLeft=10;spacingRight=4;overflow=hidden;rotatable=0;points=[[0,0.5],[1,0.5]];portConstraint=eastwest;fontSize=12;fontColor=white" vertex="1" parent="legend">
          <mxGeometry y="30" width="200" height="26" as="geometry" />
        </mxCell>
        <mxCell id="legend2" value="Flask Backend" style="text;strokeColor=none;fillColor=#2c3e50;align=left;verticalAlign=middle;spacingLeft=10;spacingRight=4;overflow=hidden;rotatable=0;points=[[0,0.5],[1,0.5]];portConstraint=eastwest;fontSize=12;fontColor=white" vertex="1" parent="legend">
          <mxGeometry y="56" width="200" height="26" as="geometry" />
        </mxCell>
        <mxCell id="legend3" value="RAG Pipeline" style="text;strokeColor=none;fillColor=#ea4335;align=left;verticalAlign=middle;spacingLeft=10;spacingRight=4;overflow=hidden;rotatable=0;points=[[0,0.5],[1,0.5]];portConstraint=eastwest;fontSize=12;fontColor=white" vertex="1" parent="legend">
          <mxGeometry y="82" width="200" height="26" as="geometry" />
        </mxCell>
        <mxCell id="legend4" value="Google Cloud Platform" style="text;strokeColor=none;fillColor=#4285f4;align=left;verticalAlign=middle;spacingLeft=10;spacingRight=4;overflow=hidden;rotatable=0;points=[[0,0.5],[1,0.5]];portConstraint=eastwest;fontSize=12;fontColor=white" vertex="1" parent="legend">
          <mxGeometry y="108" width="200" height="26" as="geometry" />
        </mxCell>
        <mxCell id="legend5" value="Security Layer" style="text;strokeColor=none;fillColor=#ea4335;align=left;verticalAlign=middle;spacingLeft=10;spacingRight=4;overflow=hidden;rotatable=0;points=[[0,0.5],[1,0.5]];portConstraint=eastwest;fontSize=12;fontColor=white" vertex="1" parent="legend">
          <mxGeometry y="134" width="200" height="26" as="geometry" />
        </mxCell>

      </root>
    </mxGraphModel>
  </diagram>
</mxfile> 